<svg xmlns="http://www.w3.org/2000/svg" xmlns:xlink="http://www.w3.org/1999/xlink" width="500" zoomAndPan="magnify" viewBox="0 0 375 374.999991" height="500" preserveAspectRatio="xMidYMid meet" version="1.0"><defs><g/><clipPath id="ec35880efb"><path d="M 81 58.617188 L 174 58.617188 L 174 180 L 81 180 Z M 81 58.617188 " clip-rule="nonzero"/></clipPath><clipPath id="e9777fce2a"><path d="M 81 58.617188 L 174 58.617188 L 174 177 L 81 177 Z M 81 58.617188 " clip-rule="nonzero"/></clipPath><clipPath id="28e0ca5189"><path d="M 67.695312 143 L 205 143 L 205 199 L 67.695312 199 Z M 67.695312 143 " clip-rule="nonzero"/></clipPath><clipPath id="d8e4629fab"><path d="M 68 161 L 209 161 L 209 223.617188 L 68 223.617188 Z M 68 161 " clip-rule="nonzero"/></clipPath><clipPath id="192a0d0b3a"><path d="M 210 110 L 302.445312 110 L 302.445312 180 L 210 180 Z M 210 110 " clip-rule="nonzero"/></clipPath></defs><g clip-path="url(#ec35880efb)"><path fill="#ffffff" d="M 173.34375 142.789062 C 173.34375 157.464844 162.875 170.152344 147.667969 176.191406 C 141.21875 178.722656 134.527344 179.976562 127.601562 179.949219 C 111.878906 179.949219 97.992188 173.5 89.757812 163.679688 C 89.757812 163.679688 89.757812 163.679688 89.757812 163.660156 C 84.773438 157.714844 81.863281 150.527344 81.863281 142.789062 C 81.863281 133.304688 86.234375 124.652344 93.425781 118.089844 C 93.269531 118.503906 86.761719 135.507812 98.902344 149.011719 C 95.035156 129.554688 104.402344 121.488281 115.113281 111.441406 C 125.828125 101.394531 95.0625 103.867188 95.199219 86.425781 C 95.199219 86.425781 96.9375 94.019531 112.15625 97.972656 C 127.375 101.921875 134.027344 104.136719 124.105469 120.339844 C 114.285156 136.402344 122.578125 146.445312 122.742188 146.640625 C 122.640625 146.410156 116.203125 132.082031 130.101562 117.617188 C 144.097656 103.035156 143.480469 98.535156 127.617188 92.539062 C 111.753906 86.539062 135.601562 78.835938 132.9375 58.617188 C 132.9375 58.617188 137.3125 67.671875 131.988281 78.789062 C 125.507812 92.316406 154.679688 89.691406 154.953125 103.046875 C 155.230469 116.40625 131.71875 124.308594 140.140625 143.390625 C 148.5625 162.46875 161.792969 142.433594 154.679688 129.894531 C 154.679688 129.894531 162.019531 137.390625 162.019531 145.292969 C 162.019531 145.292969 167.320312 141.34375 162.96875 131.941406 C 158.617188 122.539062 151.417969 114.628906 163.101562 105.105469 C 162.964844 105.320312 155.855469 116.480469 164.46875 123.632812 C 173.164062 130.851562 173.539062 139.371094 173.34375 142.789062 Z M 173.34375 142.789062 " fill-opacity="1" fill-rule="nonzero"/></g><g clip-path="url(#e9777fce2a)"><path fill="#ffffff" d="M 173.34375 142.789062 C 173.34375 157.464844 162.875 170.152344 147.667969 176.191406 C 171.253906 164.722656 171.683594 143.414062 167.503906 136.039062 C 170.292969 146.550781 165.496094 158.851562 160.925781 156.058594 C 158.085938 154.320312 157.484375 151.292969 157.4375 149.242188 C 156.976562 152.636719 155.070312 159 147.375 160.140625 C 147.375 160.140625 116.691406 151.050781 137.277344 124.828125 C 157.859375 98.605469 141.9375 96.265625 141.9375 96.265625 C 141.9375 96.265625 154.242188 100.527344 135.203125 121.449219 C 117.652344 140.742188 126.023438 160.421875 132.714844 165.789062 C 100.269531 156.347656 113.019531 125.40625 113.199219 124.976562 C 95.699219 143.203125 107.734375 169.367188 107.734375 169.367188 C 72.859375 152.695312 92.347656 119.824219 93.371094 118.152344 C 79.992188 138.488281 82.335938 153.273438 89.742188 163.660156 C 84.757812 157.714844 81.851562 150.527344 81.851562 142.789062 C 81.851562 133.304688 86.222656 124.652344 93.414062 118.089844 C 93.253906 118.503906 86.746094 135.507812 98.886719 149.011719 C 95.023438 129.554688 104.386719 121.488281 115.101562 111.441406 C 125.8125 101.394531 95.0625 103.867188 95.199219 86.425781 C 95.199219 86.425781 96.9375 94.019531 112.15625 97.972656 C 127.375 101.921875 134.027344 104.136719 124.105469 120.339844 C 114.285156 136.402344 122.578125 146.445312 122.742188 146.640625 C 122.640625 146.410156 116.203125 132.082031 130.101562 117.617188 C 144.097656 103.035156 143.480469 98.535156 127.617188 92.539062 C 111.753906 86.539062 135.601562 78.835938 132.9375 58.617188 C 132.9375 58.617188 137.3125 67.671875 131.988281 78.789062 C 125.507812 92.316406 154.679688 89.691406 154.953125 103.046875 C 155.230469 116.40625 131.71875 124.308594 140.140625 143.390625 C 148.5625 162.46875 161.792969 142.433594 154.679688 129.894531 C 154.679688 129.894531 162.019531 137.390625 162.019531 145.292969 C 162.019531 145.292969 167.320312 141.34375 162.96875 131.941406 C 158.617188 122.539062 151.417969 114.628906 163.101562 105.105469 C 162.964844 105.320312 155.855469 116.480469 164.46875 123.632812 C 173.164062 130.851562 173.539062 139.371094 173.34375 142.789062 Z M 173.34375 142.789062 " fill-opacity="1" fill-rule="nonzero"/></g><g clip-path="url(#28e0ca5189)"><path fill="#ffffff" d="M 181.914062 143.84375 C 189.148438 144.984375 193.84375 147.4375 194.828125 151.160156 C 197.449219 161.070312 172.730469 176.25 139.613281 185.054688 C 106.496094 193.863281 77.523438 192.96875 74.898438 183.070312 C 73.914062 179.347656 76.785156 174.886719 82.503906 170.296875 C 72.171875 176.914062 66.546875 183.621094 67.964844 188.96875 C 70.933594 200.199219 103.753906 201.214844 141.242188 191.238281 C 178.734375 181.261719 206.746094 164.066406 203.792969 152.847656 C 202.359375 147.511719 194.164062 144.46875 181.914062 143.84375 Z M 181.914062 143.84375 " fill-opacity="1" fill-rule="nonzero"/></g><g clip-path="url(#d8e4629fab)"><path fill="#ffffff" d="M 156.964844 193.242188 C 152.445312 194.910156 147.773438 196.386719 142.949219 197.679688 C 138.128906 198.964844 133.332031 199.992188 128.566406 200.789062 C 100.058594 206.550781 76.242188 205.757812 68.597656 198.761719 C 79.300781 219.945312 113.261719 229.40625 148.835938 219.945312 C 184.414062 210.488281 209.234375 185.382812 208.0625 161.671875 C 204.886719 171.542969 184.582031 184.078125 156.964844 193.242188 Z M 156.964844 193.242188 " fill-opacity="1" fill-rule="nonzero"/></g><g clip-path="url(#192a0d0b3a)"><path fill="#ffffff" d="M 211.039062 179.949219 C 211.039062 179.949219 208.101562 162 228.167969 152.597656 C 248.230469 143.195312 274.554688 135.402344 284.828125 117.65625 C 295.101562 99.910156 321.828125 118.914062 278.402344 137.261719 C 234.976562 155.605469 222.367188 155.808594 211.039062 179.949219 Z M 211.039062 179.949219 " fill-opacity="1" fill-rule="nonzero"/></g><g fill="#ffffff" fill-opacity="1"><g transform="translate(89.444147, 256.156346)"><g><path d="M 12.546875 0.453125 C 10.210938 0.453125 8.21875 0 6.5625 -0.90625 C 4.90625 -1.8125 3.632812 -3.117188 2.75 -4.828125 C 1.863281 -6.535156 1.421875 -8.585938 1.421875 -10.984375 C 1.421875 -13.453125 1.859375 -15.59375 2.734375 -17.40625 C 3.609375 -19.226562 4.84375 -20.640625 6.4375 -21.640625 C 8.039062 -22.648438 9.925781 -23.15625 12.09375 -23.15625 C 13.5625 -23.15625 14.742188 -22.925781 15.640625 -22.46875 C 16.535156 -22.007812 17.210938 -21.554688 17.671875 -21.109375 L 18 -23.21875 L 19.875 -23.21875 L 21.140625 -15.59375 L 18.703125 -15.015625 C 18.253906 -16.703125 17.535156 -18.019531 16.546875 -18.96875 C 15.566406 -19.914062 14.253906 -20.390625 12.609375 -20.390625 C 11.222656 -20.390625 10.078125 -20 9.171875 -19.21875 C 8.265625 -18.445312 7.585938 -17.382812 7.140625 -16.03125 C 6.703125 -14.675781 6.484375 -13.113281 6.484375 -11.34375 C 6.484375 -9.425781 6.785156 -7.816406 7.390625 -6.515625 C 7.992188 -5.222656 8.804688 -4.25 9.828125 -3.59375 C 10.859375 -2.945312 12.003906 -2.625 13.265625 -2.625 C 14.316406 -2.625 15.222656 -2.796875 15.984375 -3.140625 C 16.742188 -3.484375 17.398438 -3.921875 17.953125 -4.453125 C 18.515625 -4.984375 19.015625 -5.519531 19.453125 -6.0625 L 21.4375 -4.4375 C 20.914062 -3.707031 20.265625 -2.960938 19.484375 -2.203125 C 18.703125 -1.441406 17.75 -0.804688 16.625 -0.296875 C 15.507812 0.203125 14.148438 0.453125 12.546875 0.453125 Z M 12.546875 0.453125 "/></g></g></g><g fill="#ffffff" fill-opacity="1"><g transform="translate(114.955092, 256.156346)"><g><path d="M 12.421875 0.453125 C 9.910156 0.453125 7.84375 -0.046875 6.21875 -1.046875 C 4.601562 -2.054688 3.398438 -3.421875 2.609375 -5.140625 C 1.816406 -6.859375 1.421875 -8.785156 1.421875 -10.921875 C 1.421875 -13.066406 1.71875 -14.90625 2.3125 -16.4375 C 2.90625 -17.96875 3.726562 -19.226562 4.78125 -20.21875 C 5.832031 -21.21875 7.039062 -21.957031 8.40625 -22.4375 C 9.78125 -22.914062 11.238281 -23.15625 12.78125 -23.15625 C 14.789062 -23.15625 16.597656 -22.738281 18.203125 -21.90625 C 19.816406 -21.070312 21.09375 -19.828125 22.03125 -18.171875 C 22.96875 -16.515625 23.4375 -14.4375 23.4375 -11.9375 C 23.4375 -9.625 23.019531 -7.53125 22.1875 -5.65625 C 21.351562 -3.789062 20.117188 -2.304688 18.484375 -1.203125 C 16.859375 -0.0976562 14.835938 0.453125 12.421875 0.453125 Z M 12.703125 -2.265625 C 14.503906 -2.265625 15.910156 -2.992188 16.921875 -4.453125 C 17.941406 -5.910156 18.453125 -8.207031 18.453125 -11.34375 C 18.453125 -13.164062 18.210938 -14.757812 17.734375 -16.125 C 17.253906 -17.5 16.554688 -18.5625 15.640625 -19.3125 C 14.722656 -20.070312 13.59375 -20.453125 12.25 -20.453125 C 10.375 -20.453125 8.941406 -19.710938 7.953125 -18.234375 C 6.972656 -16.753906 6.484375 -14.535156 6.484375 -11.578125 C 6.484375 -9.753906 6.703125 -8.140625 7.140625 -6.734375 C 7.585938 -5.335938 8.269531 -4.242188 9.1875 -3.453125 C 10.101562 -2.660156 11.273438 -2.265625 12.703125 -2.265625 Z M 12.703125 -2.265625 "/></g></g></g><g fill="#ffffff" fill-opacity="1"><g transform="translate(142.021918, 256.156346)"><g><path d="M 12.421875 0.453125 C 9.910156 0.453125 7.84375 -0.046875 6.21875 -1.046875 C 4.601562 -2.054688 3.398438 -3.421875 2.609375 -5.140625 C 1.816406 -6.859375 1.421875 -8.785156 1.421875 -10.921875 C 1.421875 -13.066406 1.71875 -14.90625 2.3125 -16.4375 C 2.90625 -17.96875 3.726562 -19.226562 4.78125 -20.21875 C 5.832031 -21.21875 7.039062 -21.957031 8.40625 -22.4375 C 9.78125 -22.914062 11.238281 -23.15625 12.78125 -23.15625 C 14.789062 -23.15625 16.597656 -22.738281 18.203125 -21.90625 C 19.816406 -21.070312 21.09375 -19.828125 22.03125 -18.171875 C 22.96875 -16.515625 23.4375 -14.4375 23.4375 -11.9375 C 23.4375 -9.625 23.019531 -7.53125 22.1875 -5.65625 C 21.351562 -3.789062 20.117188 -2.304688 18.484375 -1.203125 C 16.859375 -0.0976562 14.835938 0.453125 12.421875 0.453125 Z M 12.703125 -2.265625 C 14.503906 -2.265625 15.910156 -2.992188 16.921875 -4.453125 C 17.941406 -5.910156 18.453125 -8.207031 18.453125 -11.34375 C 18.453125 -13.164062 18.210938 -14.757812 17.734375 -16.125 C 17.253906 -17.5 16.554688 -18.5625 15.640625 -19.3125 C 14.722656 -20.070312 13.59375 -20.453125 12.25 -20.453125 C 10.375 -20.453125 8.941406 -19.710938 7.953125 -18.234375 C 6.972656 -16.753906 6.484375 -14.535156 6.484375 -11.578125 C 6.484375 -9.753906 6.703125 -8.140625 7.140625 -6.734375 C 7.585938 -5.335938 8.269531 -4.242188 9.1875 -3.453125 C 10.101562 -2.660156 11.273438 -2.265625 12.703125 -2.265625 Z M 12.703125 -2.265625 "/></g></g></g><g fill="#ffffff" fill-opacity="1"><g transform="translate(169.088744, 256.156346)"><g><path d="M 21.6875 0.453125 C 20.84375 0.453125 19.960938 0.257812 19.046875 -0.125 C 18.128906 -0.519531 17.28125 -1.34375 16.5 -2.59375 L 11.90625 -10.015625 L 9.265625 -7.359375 L 9.265625 -3.796875 C 9.265625 -3.296875 9.285156 -2.9375 9.328125 -2.71875 C 9.378906 -2.507812 9.640625 -2.359375 10.109375 -2.265625 L 11.96875 -1.9375 L 11.96875 0 L 1.625 0 L 1.625 -1.9375 L 3.46875 -2.265625 C 3.945312 -2.359375 4.234375 -2.507812 4.328125 -2.71875 C 4.421875 -2.9375 4.46875 -3.285156 4.46875 -3.765625 L 4.46875 -18.90625 C 4.46875 -19.394531 4.425781 -19.75 4.34375 -19.96875 C 4.257812 -20.1875 3.96875 -20.335938 3.46875 -20.421875 L 1.625 -20.75 L 1.625 -22.6875 L 12.15625 -22.6875 L 12.15625 -20.75 L 10.1875 -20.390625 C 9.726562 -20.304688 9.457031 -20.140625 9.375 -19.890625 C 9.300781 -19.640625 9.265625 -19.265625 9.265625 -18.765625 L 9.265625 -10.796875 L 17.21875 -18.96875 C 17.5625 -19.394531 17.675781 -19.742188 17.5625 -20.015625 C 17.457031 -20.285156 17.222656 -20.441406 16.859375 -20.484375 L 15.296875 -20.71875 L 15.625 -22.6875 L 23.828125 -22.6875 L 23.828125 -20.6875 L 22.765625 -20.453125 C 22.347656 -20.367188 22.019531 -20.226562 21.78125 -20.03125 C 21.550781 -19.84375 21.1875 -19.5 20.6875 -19 L 15.109375 -13.265625 L 20.359375 -5.03125 C 20.859375 -4.269531 21.304688 -3.710938 21.703125 -3.359375 C 22.109375 -3.003906 22.488281 -2.769531 22.84375 -2.65625 C 23.195312 -2.550781 23.546875 -2.5 23.890625 -2.5 C 24.003906 -2.5 24.175781 -2.519531 24.40625 -2.5625 C 24.644531 -2.601562 24.90625 -2.664062 25.1875 -2.75 L 25.609375 -0.90625 C 25.265625 -0.582031 24.753906 -0.273438 24.078125 0.015625 C 23.410156 0.304688 22.613281 0.453125 21.6875 0.453125 Z M 21.6875 0.453125 "/></g></g></g><g fill="#ffffff" fill-opacity="1"><g transform="translate(196.479713, 256.156346)"><g><path d="M 1.625 0 L 1.625 -1.9375 L 3.28125 -2.234375 C 3.84375 -2.347656 4.179688 -2.488281 4.296875 -2.65625 C 4.410156 -2.832031 4.46875 -3.253906 4.46875 -3.921875 L 4.46875 -18.765625 C 4.46875 -19.441406 4.410156 -19.867188 4.296875 -20.046875 C 4.179688 -20.234375 3.84375 -20.367188 3.28125 -20.453125 L 1.625 -20.75 L 1.625 -22.6875 L 12.15625 -22.6875 L 12.15625 -20.75 L 10.3125 -20.421875 C 9.832031 -20.335938 9.535156 -20.195312 9.421875 -20 C 9.316406 -19.8125 9.265625 -19.410156 9.265625 -18.796875 L 9.265625 -3.796875 C 9.265625 -3.253906 9.316406 -2.882812 9.421875 -2.6875 C 9.535156 -2.5 9.832031 -2.359375 10.3125 -2.265625 L 12.15625 -1.9375 L 12.15625 0 Z M 1.625 0 "/></g></g></g><g fill="#ffffff" fill-opacity="1"><g transform="translate(212.460894, 256.156346)"><g><path d="M 1.625 0 L 1.625 -1.9375 L 3.375 -2.265625 C 3.820312 -2.359375 4.09375 -2.507812 4.1875 -2.71875 C 4.289062 -2.9375 4.34375 -3.328125 4.34375 -3.890625 L 4.34375 -18.9375 C 4.34375 -19.4375 4.289062 -19.785156 4.1875 -19.984375 C 4.09375 -20.191406 3.8125 -20.335938 3.34375 -20.421875 L 1.625 -20.75 L 1.625 -22.6875 L 9.34375 -22.6875 L 19.609375 -5.546875 L 19.71875 -5.546875 L 19.71875 -18.9375 C 19.71875 -19.4375 19.664062 -19.785156 19.5625 -19.984375 C 19.46875 -20.191406 19.179688 -20.335938 18.703125 -20.421875 L 16.984375 -20.75 L 16.984375 -22.6875 L 25.359375 -22.6875 L 25.359375 -20.75 L 23.609375 -20.421875 C 23.128906 -20.335938 22.84375 -20.179688 22.75 -19.953125 C 22.664062 -19.722656 22.625 -19.335938 22.625 -18.796875 L 22.625 0 L 17.671875 0 L 7.390625 -17.15625 L 7.265625 -17.15625 L 7.265625 -3.765625 C 7.265625 -3.265625 7.316406 -2.914062 7.421875 -2.71875 C 7.535156 -2.53125 7.828125 -2.378906 8.296875 -2.265625 L 9.984375 -1.9375 L 9.984375 0 Z M 1.625 0 "/></g></g></g><g fill="#ffffff" fill-opacity="1"><g transform="translate(241.634628, 256.156346)"><g><path d="M 12.421875 0.453125 C 10.410156 0.453125 8.703125 0.140625 7.296875 -0.484375 C 5.890625 -1.109375 4.757812 -1.960938 3.90625 -3.046875 C 3.050781 -4.128906 2.421875 -5.335938 2.015625 -6.671875 C 1.617188 -8.015625 1.421875 -9.398438 1.421875 -10.828125 C 1.421875 -13.335938 1.847656 -15.515625 2.703125 -17.359375 C 3.554688 -19.210938 4.78125 -20.640625 6.375 -21.640625 C 7.976562 -22.648438 9.875 -23.15625 12.0625 -23.15625 C 13.46875 -23.15625 14.644531 -22.925781 15.59375 -22.46875 C 16.539062 -22.007812 17.242188 -21.554688 17.703125 -21.109375 L 18.03125 -23.15625 L 20 -23.15625 L 21.59375 -15.59375 L 19.09375 -15.046875 C 18.488281 -16.835938 17.671875 -18.171875 16.640625 -19.046875 C 15.617188 -19.921875 14.296875 -20.359375 12.671875 -20.359375 C 11.421875 -20.359375 10.394531 -20.097656 9.59375 -19.578125 C 8.789062 -19.054688 8.160156 -18.351562 7.703125 -17.46875 C 7.253906 -16.582031 6.9375 -15.601562 6.75 -14.53125 C 6.570312 -13.46875 6.484375 -12.382812 6.484375 -11.28125 C 6.484375 -9.207031 6.78125 -7.507812 7.375 -6.1875 C 7.96875 -4.875 8.753906 -3.898438 9.734375 -3.265625 C 10.722656 -2.640625 11.789062 -2.328125 12.9375 -2.328125 C 13.945312 -2.328125 14.75 -2.46875 15.34375 -2.75 C 15.945312 -3.03125 16.441406 -3.347656 16.828125 -3.703125 L 16.828125 -7.203125 C 16.828125 -7.691406 16.769531 -8.0625 16.65625 -8.3125 C 16.550781 -8.5625 16.25 -8.726562 15.75 -8.8125 L 14.140625 -9.109375 L 14.140625 -11.0625 L 23.4375 -11.0625 L 23.4375 -9.109375 L 22.046875 -8.8125 C 21.585938 -8.726562 21.3125 -8.539062 21.21875 -8.25 C 21.125 -7.957031 21.078125 -7.5625 21.078125 -7.0625 L 21.078125 0.09375 L 18.671875 0.09375 L 18.0625 -1.265625 C 17.457031 -0.785156 16.664062 -0.378906 15.6875 -0.046875 C 14.71875 0.285156 13.628906 0.453125 12.421875 0.453125 Z M 12.421875 0.453125 "/></g></g></g><g fill="#ffffff" fill-opacity="1"><g transform="translate(51.785101, 297.700468)"><g><path d="M 4.359375 0 L 4.359375 -1.359375 L 5.703125 -1.578125 C 6.023438 -1.617188 6.226562 -1.738281 6.3125 -1.9375 C 6.394531 -2.144531 6.4375 -2.410156 6.4375 -2.734375 L 6.4375 -14.03125 L 5.875 -14.03125 C 5.320312 -14.03125 4.863281 -13.988281 4.5 -13.90625 C 4.144531 -13.820312 3.84375 -13.660156 3.59375 -13.421875 C 3.351562 -13.179688 3.128906 -12.835938 2.921875 -12.390625 C 2.722656 -11.953125 2.503906 -11.367188 2.265625 -10.640625 L 0.59375 -11.015625 L 1.484375 -15.59375 L 14.734375 -15.59375 L 15.625 -11.09375 L 13.9375 -10.703125 C 13.644531 -11.628906 13.378906 -12.328125 13.140625 -12.796875 C 12.898438 -13.273438 12.597656 -13.597656 12.234375 -13.765625 C 11.867188 -13.941406 11.335938 -14.03125 10.640625 -14.03125 L 9.734375 -14.03125 L 9.734375 -2.65625 C 9.734375 -2.3125 9.773438 -2.0625 9.859375 -1.90625 C 9.953125 -1.75 10.160156 -1.640625 10.484375 -1.578125 L 11.796875 -1.359375 L 11.796875 0 Z M 4.359375 0 "/></g></g></g><g fill="#ffffff" fill-opacity="1"><g transform="translate(74.687786, 297.700468)"><g><path d="M 0.265625 0 L 0.265625 -1.34375 L 1.3125 -1.484375 C 1.582031 -1.546875 1.773438 -1.660156 1.890625 -1.828125 C 2.015625 -2.003906 2.148438 -2.300781 2.296875 -2.71875 L 6.921875 -15.59375 L 9.78125 -15.59375 L 14.359375 -2.65625 C 14.484375 -2.289062 14.597656 -2.019531 14.703125 -1.84375 C 14.816406 -1.664062 15.019531 -1.546875 15.3125 -1.484375 L 16.203125 -1.34375 L 16.203125 0 L 9.328125 0 L 9.328125 -1.34375 L 10.359375 -1.484375 C 10.648438 -1.535156 10.820312 -1.640625 10.875 -1.796875 C 10.925781 -1.960938 10.894531 -2.234375 10.78125 -2.609375 L 10.09375 -4.78125 L 5.140625 -4.78125 L 4.453125 -2.6875 C 4.335938 -2.332031 4.3125 -2.066406 4.375 -1.890625 C 4.4375 -1.710938 4.632812 -1.585938 4.96875 -1.515625 L 5.9375 -1.34375 L 5.9375 0 Z M 5.609375 -6.296875 L 9.640625 -6.296875 L 7.75 -12.296875 L 7.65625 -12.296875 Z M 5.609375 -6.296875 "/></g></g></g><g fill="#ffffff" fill-opacity="1"><g transform="translate(97.835272, 297.700468)"><g><path d="M 3.9375 0 L 3.9375 -1.34375 L 5.65625 -1.5625 C 5.976562 -1.613281 6.171875 -1.722656 6.234375 -1.890625 C 6.304688 -2.054688 6.34375 -2.300781 6.34375 -2.625 L 6.34375 -5.875 L 2.265625 -12.953125 C 2.054688 -13.328125 1.863281 -13.59375 1.6875 -13.75 C 1.507812 -13.914062 1.257812 -14.03125 0.9375 -14.09375 L 0.171875 -14.25 L 0.171875 -15.59375 L 7.21875 -15.59375 L 7.21875 -14.3125 L 6.21875 -14.15625 C 5.914062 -14.113281 5.71875 -14.007812 5.625 -13.84375 C 5.539062 -13.6875 5.597656 -13.421875 5.796875 -13.046875 L 8.5 -8.015625 L 8.609375 -8.015625 L 11.265625 -12.9375 C 11.460938 -13.3125 11.523438 -13.578125 11.453125 -13.734375 C 11.390625 -13.898438 11.203125 -14.015625 10.890625 -14.078125 L 9.703125 -14.34375 L 9.703125 -15.59375 L 15.296875 -15.59375 L 15.296875 -14.3125 L 14.65625 -14.140625 C 14.382812 -14.097656 14.15625 -13.984375 13.96875 -13.796875 C 13.78125 -13.609375 13.578125 -13.316406 13.359375 -12.921875 L 9.640625 -6.0625 L 9.640625 -2.609375 C 9.640625 -2.265625 9.675781 -2.015625 9.75 -1.859375 C 9.820312 -1.710938 10.023438 -1.613281 10.359375 -1.5625 L 12.0625 -1.34375 L 12.0625 0 Z M 3.9375 0 "/></g></g></g><g fill="#ffffff" fill-opacity="1"><g transform="translate(119.981333, 297.700468)"><g><path d="M 1.109375 0 L 1.109375 -1.34375 L 2.1875 -1.53125 C 2.507812 -1.59375 2.703125 -1.71875 2.765625 -1.90625 C 2.835938 -2.09375 2.875 -2.347656 2.875 -2.671875 L 2.875 -13 C 2.875 -13.34375 2.835938 -13.585938 2.765625 -13.734375 C 2.691406 -13.878906 2.484375 -13.984375 2.140625 -14.046875 L 1.109375 -14.25 L 1.109375 -15.59375 L 12.109375 -15.59375 L 12.953125 -11.84375 L 11.4375 -11.40625 C 11.144531 -12.21875 10.859375 -12.804688 10.578125 -13.171875 C 10.296875 -13.535156 9.9375 -13.769531 9.5 -13.875 C 9.070312 -13.976562 8.488281 -14.03125 7.75 -14.03125 L 6.171875 -14.03125 L 6.171875 -8.234375 L 7.21875 -8.234375 C 7.78125 -8.234375 8.179688 -8.265625 8.421875 -8.328125 C 8.671875 -8.390625 8.847656 -8.550781 8.953125 -8.8125 C 9.066406 -9.070312 9.175781 -9.5 9.28125 -10.09375 L 10.53125 -10.25 L 10.53125 -4.625 L 9.28125 -4.40625 C 9.195312 -5.164062 9.101562 -5.710938 9 -6.046875 C 8.894531 -6.378906 8.726562 -6.585938 8.5 -6.671875 C 8.269531 -6.753906 7.914062 -6.796875 7.4375 -6.796875 L 6.171875 -6.796875 L 6.171875 -2.65625 C 6.171875 -2.238281 6.21875 -1.960938 6.3125 -1.828125 C 6.40625 -1.691406 6.628906 -1.59375 6.984375 -1.53125 L 8.421875 -1.34375 L 8.421875 0 Z M 1.109375 0 "/></g></g></g><g fill="#ffffff" fill-opacity="1"><g transform="translate(140.213548, 297.700468)"><g><path d="M 8.953125 0.3125 C 7.410156 0.3125 6.1875 0.0507812 5.28125 -0.46875 C 4.375 -0.988281 3.722656 -1.703125 3.328125 -2.609375 C 2.929688 -3.523438 2.734375 -4.585938 2.734375 -5.796875 L 2.734375 -12.984375 C 2.734375 -13.328125 2.695312 -13.570312 2.625 -13.71875 C 2.550781 -13.863281 2.34375 -13.96875 2 -14.03125 L 0.796875 -14.234375 L 0.796875 -15.59375 L 7.953125 -15.59375 L 7.953125 -14.234375 L 6.703125 -14.03125 C 6.390625 -13.96875 6.195312 -13.847656 6.125 -13.671875 C 6.0625 -13.492188 6.03125 -13.234375 6.03125 -12.890625 L 6.03125 -6.09375 C 6.03125 -5.195312 6.113281 -4.425781 6.28125 -3.78125 C 6.445312 -3.132812 6.765625 -2.640625 7.234375 -2.296875 C 7.710938 -1.953125 8.425781 -1.78125 9.375 -1.78125 C 10.34375 -1.78125 11.070312 -1.976562 11.5625 -2.375 C 12.0625 -2.78125 12.398438 -3.304688 12.578125 -3.953125 C 12.753906 -4.609375 12.84375 -5.316406 12.84375 -6.078125 L 12.84375 -12.984375 C 12.84375 -13.328125 12.804688 -13.570312 12.734375 -13.71875 C 12.660156 -13.863281 12.453125 -13.96875 12.109375 -14.03125 L 10.9375 -14.234375 L 10.9375 -15.59375 L 16.875 -15.59375 L 16.875 -14.234375 L 15.65625 -14.03125 C 15.320312 -13.96875 15.125 -13.847656 15.0625 -13.671875 C 15 -13.492188 14.96875 -13.234375 14.96875 -12.890625 L 14.96875 -6.03125 C 14.96875 -3.851562 14.4375 -2.25 13.375 -1.21875 C 12.320312 -0.195312 10.847656 0.3125 8.953125 0.3125 Z M 8.953125 0.3125 "/></g></g></g><g fill="#ffffff" fill-opacity="1"><g transform="translate(164.473728, 297.700468)"><g><path d="M 1.109375 0 L 1.109375 -1.34375 L 2.3125 -1.5625 C 2.625 -1.613281 2.8125 -1.710938 2.875 -1.859375 C 2.945312 -2.015625 2.984375 -2.285156 2.984375 -2.671875 L 2.984375 -13 C 2.984375 -13.34375 2.945312 -13.582031 2.875 -13.71875 C 2.8125 -13.863281 2.617188 -13.96875 2.296875 -14.03125 L 1.109375 -14.25 L 1.109375 -15.59375 L 6.40625 -15.59375 L 13.46875 -3.8125 L 13.53125 -3.8125 L 13.53125 -13 C 13.53125 -13.34375 13.5 -13.582031 13.4375 -13.71875 C 13.375 -13.863281 13.175781 -13.96875 12.84375 -14.03125 L 11.671875 -14.25 L 11.671875 -15.59375 L 17.40625 -15.59375 L 17.40625 -14.25 L 16.203125 -14.03125 C 15.878906 -13.96875 15.6875 -13.859375 15.625 -13.703125 C 15.570312 -13.546875 15.546875 -13.285156 15.546875 -12.921875 L 15.546875 0 L 12.140625 0 L 5.078125 -11.78125 L 4.984375 -11.78125 L 4.984375 -2.578125 C 4.984375 -2.242188 5.019531 -2.007812 5.09375 -1.875 C 5.164062 -1.738281 5.367188 -1.632812 5.703125 -1.5625 L 6.859375 -1.34375 L 6.859375 0 Z M 1.109375 0 "/></g></g></g><g fill="#ffffff" fill-opacity="1"><g transform="translate(189.668569, 297.700468)"><g/></g></g><g fill="#ffffff" fill-opacity="1"><g transform="translate(200.353848, 297.700468)"><g><path d="M 6.125 0.3125 C 5.5625 0.3125 4.976562 0.234375 4.375 0.078125 C 3.769531 -0.078125 3.210938 -0.320312 2.703125 -0.65625 C 2.191406 -0.988281 1.78125 -1.429688 1.46875 -1.984375 C 1.15625 -2.546875 1 -3.226562 1 -4.03125 C 1 -4.757812 1.144531 -5.40625 1.4375 -5.96875 C 1.738281 -6.539062 2.144531 -7.039062 2.65625 -7.46875 C 3.164062 -7.894531 3.734375 -8.234375 4.359375 -8.484375 C 3.898438 -9.003906 3.476562 -9.554688 3.09375 -10.140625 C 2.71875 -10.722656 2.53125 -11.378906 2.53125 -12.109375 C 2.53125 -12.953125 2.734375 -13.65625 3.140625 -14.21875 C 3.554688 -14.789062 4.097656 -15.21875 4.765625 -15.5 C 5.429688 -15.78125 6.144531 -15.921875 6.90625 -15.921875 C 8.09375 -15.921875 9.046875 -15.613281 9.765625 -15 C 10.492188 -14.382812 10.859375 -13.59375 10.859375 -12.625 C 10.859375 -11.75 10.59375 -10.988281 10.0625 -10.34375 C 9.539062 -9.707031 8.863281 -9.195312 8.03125 -8.8125 L 10.703125 -5.984375 C 10.972656 -6.984375 11.289062 -7.804688 11.65625 -8.453125 C 12.019531 -9.109375 12.410156 -9.625 12.828125 -10 C 13.253906 -10.382812 13.679688 -10.65625 14.109375 -10.8125 C 14.546875 -10.96875 14.960938 -11.046875 15.359375 -11.046875 C 15.878906 -11.046875 16.34375 -10.890625 16.75 -10.578125 C 17.164062 -10.265625 17.375 -9.84375 17.375 -9.3125 C 17.375 -8.894531 17.253906 -8.53125 17.015625 -8.21875 C 16.773438 -7.914062 16.476562 -7.765625 16.125 -7.765625 C 15.75 -7.765625 15.457031 -7.875 15.25 -8.09375 C 15.039062 -8.3125 14.828125 -8.722656 14.609375 -9.328125 C 14.273438 -9.148438 13.945312 -8.882812 13.625 -8.53125 C 13.300781 -8.1875 13 -7.707031 12.71875 -7.09375 C 12.4375 -6.488281 12.191406 -5.691406 11.984375 -4.703125 C 12.609375 -4.085938 13.117188 -3.597656 13.515625 -3.234375 C 13.910156 -2.867188 14.25 -2.609375 14.53125 -2.453125 C 14.820312 -2.304688 15.097656 -2.234375 15.359375 -2.234375 C 15.566406 -2.234375 15.804688 -2.304688 16.078125 -2.453125 C 16.347656 -2.597656 16.644531 -2.789062 16.96875 -3.03125 L 17.71875 -2.15625 C 17.1875 -1.425781 16.660156 -0.882812 16.140625 -0.53125 C 15.617188 -0.175781 15.097656 0 14.578125 0 C 13.941406 0 13.34375 -0.148438 12.78125 -0.453125 C 12.226562 -0.753906 11.613281 -1.265625 10.9375 -1.984375 C 10.675781 -1.609375 10.347656 -1.242188 9.953125 -0.890625 C 9.566406 -0.546875 9.066406 -0.257812 8.453125 -0.03125 C 7.835938 0.195312 7.0625 0.3125 6.125 0.3125 Z M 7.0625 -1.53125 C 7.625 -1.53125 8.140625 -1.660156 8.609375 -1.921875 C 9.078125 -2.179688 9.425781 -2.539062 9.65625 -3 L 5.34375 -7.421875 C 5.0625 -7.179688 4.800781 -6.820312 4.5625 -6.34375 C 4.320312 -5.875 4.203125 -5.296875 4.203125 -4.609375 C 4.203125 -3.566406 4.484375 -2.789062 5.046875 -2.28125 C 5.617188 -1.78125 6.289062 -1.53125 7.0625 -1.53125 Z M 7.140625 -9.796875 C 7.765625 -10.273438 8.191406 -10.769531 8.421875 -11.28125 C 8.648438 -11.800781 8.765625 -12.285156 8.765625 -12.734375 C 8.765625 -13.347656 8.59375 -13.804688 8.25 -14.109375 C 7.914062 -14.421875 7.507812 -14.578125 7.03125 -14.578125 C 6.800781 -14.578125 6.550781 -14.519531 6.28125 -14.40625 C 6.007812 -14.300781 5.78125 -14.125 5.59375 -13.875 C 5.414062 -13.632812 5.328125 -13.300781 5.328125 -12.875 C 5.328125 -12.28125 5.515625 -11.726562 5.890625 -11.21875 C 6.265625 -10.71875 6.679688 -10.242188 7.140625 -9.796875 Z M 7.140625 -9.796875 "/></g></g></g><g fill="#ffffff" fill-opacity="1"><g transform="translate(225.370654, 297.700468)"><g/></g></g><g fill="#ffffff" fill-opacity="1"><g transform="translate(236.055933, 297.700468)"><g><path d="M 4.703125 0.3125 C 3.910156 0.3125 3.191406 0.195312 2.546875 -0.03125 C 1.898438 -0.257812 1.390625 -0.597656 1.015625 -1.046875 C 0.640625 -1.503906 0.453125 -2.050781 0.453125 -2.6875 C 0.453125 -3.207031 0.613281 -3.664062 0.9375 -4.0625 C 1.257812 -4.457031 1.695312 -4.65625 2.25 -4.65625 C 2.769531 -4.65625 3.148438 -4.53125 3.390625 -4.28125 C 3.640625 -4.039062 3.765625 -3.769531 3.765625 -3.46875 C 3.765625 -3.257812 3.71875 -3.039062 3.625 -2.8125 C 3.539062 -2.582031 3.347656 -2.234375 3.046875 -1.765625 C 3.171875 -1.660156 3.378906 -1.539062 3.671875 -1.40625 C 3.972656 -1.28125 4.304688 -1.21875 4.671875 -1.21875 C 5.222656 -1.21875 5.628906 -1.335938 5.890625 -1.578125 C 6.160156 -1.816406 6.335938 -2.15625 6.421875 -2.59375 C 6.515625 -3.03125 6.5625 -3.546875 6.5625 -4.140625 L 6.5625 -13 C 6.5625 -13.34375 6.519531 -13.585938 6.4375 -13.734375 C 6.363281 -13.878906 6.160156 -13.984375 5.828125 -14.046875 L 4.4375 -14.265625 L 4.4375 -15.59375 L 11.515625 -15.59375 L 11.515625 -14.25 L 10.484375 -14 C 10.171875 -13.925781 9.988281 -13.8125 9.9375 -13.65625 C 9.882812 -13.5 9.859375 -13.253906 9.859375 -12.921875 L 9.859375 -4.3125 C 9.859375 -3.539062 9.6875 -2.800781 9.34375 -2.09375 C 9.007812 -1.394531 8.460938 -0.816406 7.703125 -0.359375 C 6.941406 0.0859375 5.941406 0.3125 4.703125 0.3125 Z M 4.703125 0.3125 "/></g></g></g><g fill="#ffffff" fill-opacity="1"><g transform="translate(254.730378, 297.700468)"><g><path d="M 8.53125 0.3125 C 6.800781 0.3125 5.378906 -0.03125 4.265625 -0.71875 C 3.160156 -1.414062 2.335938 -2.351562 1.796875 -3.53125 C 1.253906 -4.707031 0.984375 -6.03125 0.984375 -7.5 C 0.984375 -8.96875 1.1875 -10.226562 1.59375 -11.28125 C 2 -12.34375 2.5625 -13.210938 3.28125 -13.890625 C 4 -14.578125 4.828125 -15.082031 5.765625 -15.40625 C 6.710938 -15.726562 7.710938 -15.890625 8.765625 -15.890625 C 10.148438 -15.890625 11.394531 -15.601562 12.5 -15.03125 C 13.601562 -14.46875 14.476562 -13.617188 15.125 -12.484375 C 15.769531 -11.347656 16.09375 -9.914062 16.09375 -8.1875 C 16.09375 -6.601562 15.804688 -5.164062 15.234375 -3.875 C 14.671875 -2.59375 13.828125 -1.570312 12.703125 -0.8125 C 11.578125 -0.0625 10.1875 0.3125 8.53125 0.3125 Z M 8.734375 -1.5625 C 9.960938 -1.5625 10.925781 -2.0625 11.625 -3.0625 C 12.320312 -4.0625 12.671875 -5.640625 12.671875 -7.796875 C 12.671875 -9.035156 12.503906 -10.125 12.171875 -11.0625 C 11.847656 -12.007812 11.367188 -12.742188 10.734375 -13.265625 C 10.109375 -13.785156 9.335938 -14.046875 8.421875 -14.046875 C 7.128906 -14.046875 6.144531 -13.535156 5.46875 -12.515625 C 4.789062 -11.503906 4.453125 -9.984375 4.453125 -7.953125 C 4.453125 -6.703125 4.601562 -5.59375 4.90625 -4.625 C 5.207031 -3.664062 5.675781 -2.914062 6.3125 -2.375 C 6.945312 -1.832031 7.753906 -1.5625 8.734375 -1.5625 Z M 8.734375 -1.5625 "/></g></g></g><g fill="#ffffff" fill-opacity="1"><g transform="translate(278.47872, 297.700468)"><g><path d="M 0.265625 0 L 0.265625 -1.34375 L 1.3125 -1.484375 C 1.582031 -1.546875 1.773438 -1.660156 1.890625 -1.828125 C 2.015625 -2.003906 2.148438 -2.300781 2.296875 -2.71875 L 6.921875 -15.59375 L 9.78125 -15.59375 L 14.359375 -2.65625 C 14.484375 -2.289062 14.597656 -2.019531 14.703125 -1.84375 C 14.816406 -1.664062 15.019531 -1.546875 15.3125 -1.484375 L 16.203125 -1.34375 L 16.203125 0 L 9.328125 0 L 9.328125 -1.34375 L 10.359375 -1.484375 C 10.648438 -1.535156 10.820312 -1.640625 10.875 -1.796875 C 10.925781 -1.960938 10.894531 -2.234375 10.78125 -2.609375 L 10.09375 -4.78125 L 5.140625 -4.78125 L 4.453125 -2.6875 C 4.335938 -2.332031 4.3125 -2.066406 4.375 -1.890625 C 4.4375 -1.710938 4.632812 -1.585938 4.96875 -1.515625 L 5.9375 -1.34375 L 5.9375 0 Z M 5.609375 -6.296875 L 9.640625 -6.296875 L 7.75 -12.296875 L 7.65625 -12.296875 Z M 10.09375 -17.09375 C 9.8125 -17.09375 9.523438 -17.128906 9.234375 -17.203125 C 8.941406 -17.285156 8.632812 -17.398438 8.3125 -17.546875 C 7.613281 -17.859375 7.097656 -18.070312 6.765625 -18.1875 C 6.441406 -18.3125 6.175781 -18.375 5.96875 -18.375 C 5.820312 -18.375 5.695312 -18.320312 5.59375 -18.21875 C 5.488281 -18.125 5.3125 -17.890625 5.0625 -17.515625 L 4.171875 -18.1875 C 4.566406 -19.0625 4.945312 -19.679688 5.3125 -20.046875 C 5.675781 -20.410156 6.097656 -20.59375 6.578125 -20.59375 C 6.828125 -20.59375 7.109375 -20.546875 7.421875 -20.453125 C 7.734375 -20.367188 8.125 -20.222656 8.59375 -20.015625 C 9.101562 -19.804688 9.488281 -19.644531 9.75 -19.53125 C 10.007812 -19.425781 10.203125 -19.359375 10.328125 -19.328125 C 10.453125 -19.296875 10.566406 -19.28125 10.671875 -19.28125 C 10.816406 -19.28125 10.945312 -19.332031 11.0625 -19.4375 C 11.175781 -19.539062 11.347656 -19.765625 11.578125 -20.109375 L 12.46875 -19.5 C 12.082031 -18.625 11.707031 -18.003906 11.34375 -17.640625 C 10.976562 -17.273438 10.5625 -17.09375 10.09375 -17.09375 Z M 10.09375 -17.09375 "/></g></g></g><g fill="#ffffff" fill-opacity="1"><g transform="translate(301.626203, 297.700468)"><g><path d="M 8.53125 0.3125 C 6.800781 0.3125 5.378906 -0.03125 4.265625 -0.71875 C 3.160156 -1.414062 2.335938 -2.351562 1.796875 -3.53125 C 1.253906 -4.707031 0.984375 -6.03125 0.984375 -7.5 C 0.984375 -8.96875 1.1875 -10.226562 1.59375 -11.28125 C 2 -12.34375 2.5625 -13.210938 3.28125 -13.890625 C 4 -14.578125 4.828125 -15.082031 5.765625 -15.40625 C 6.710938 -15.726562 7.710938 -15.890625 8.765625 -15.890625 C 10.148438 -15.890625 11.394531 -15.601562 12.5 -15.03125 C 13.601562 -14.46875 14.476562 -13.617188 15.125 -12.484375 C 15.769531 -11.347656 16.09375 -9.914062 16.09375 -8.1875 C 16.09375 -6.601562 15.804688 -5.164062 15.234375 -3.875 C 14.671875 -2.59375 13.828125 -1.570312 12.703125 -0.8125 C 11.578125 -0.0625 10.1875 0.3125 8.53125 0.3125 Z M 8.734375 -1.5625 C 9.960938 -1.5625 10.925781 -2.0625 11.625 -3.0625 C 12.320312 -4.0625 12.671875 -5.640625 12.671875 -7.796875 C 12.671875 -9.035156 12.503906 -10.125 12.171875 -11.0625 C 11.847656 -12.007812 11.367188 -12.742188 10.734375 -13.265625 C 10.109375 -13.785156 9.335938 -14.046875 8.421875 -14.046875 C 7.128906 -14.046875 6.144531 -13.535156 5.46875 -12.515625 C 4.789062 -11.503906 4.453125 -9.984375 4.453125 -7.953125 C 4.453125 -6.703125 4.601562 -5.59375 4.90625 -4.625 C 5.207031 -3.664062 5.675781 -2.914062 6.3125 -2.375 C 6.945312 -1.832031 7.753906 -1.5625 8.734375 -1.5625 Z M 8.734375 -1.5625 "/></g></g></g></svg>